# xmcd
#
# Track frame offsets: 
#        150
#        25152
#        55227
#        91020
#        122087
#        175712
#        205035
#        269812
#
# Disc length: 4061 seconds
#
# Revision: 1
# Processed by: cddbd v1.5.2PL0 Copyright (c) Steve Scherf et al.
# Submitted via: ExactAudioCopy v0.99pb5
#
DISCID=660fdb08
DTITLE=Joel Futterman - Silhouettes
DYEAR=1993
DGENRE=Jazz
TTITLE0=Silhouettes
TTITLE1=Standard Shadows
TTITLE2=Precious
TTITLE3=Later On
TTITLE4=Reverie
TTITLE5=JP Swingin
TTITLE6=Naima
TTITLE7=Missy
EXTD=
EXTT0=
EXTT1=
EXTT2=
EXTT3=
EXTT4=
EXTT5=
EXTT6=
EXTT7=
PLAYORDER=
